#!OML:ASF H:\Terrain\Patient Classification 1\Takeo\Monday\TakeoMonday.ASF
:FULLY-SPECIFIED
:DEGREES
1391
root 8.99619 16.2941 -1.08851 6.01826 24.6649 1.96306
lowerback 41.8492 0.721837 4.83418
upperback 14.2801 2.96644 -3.63613
thorax -3.64248 2.04024 -7.48282
lowerneck -9.28182 -12.463 -10.141
upperneck -14.5167 -14.9077 15.9205
head -0.764464 -7.3983 5.91026
rclavicle -3.18055e-014 5.725e-014
rhumerus 72.4152 -25.4256 -55.0986
rradius 18.5633
rwrist 13.0635
rhand -32.3637 24.8177
rfingers 7.12502
rthumb -5.59988 -5.08828
lclavicle -3.18055e-014 5.725e-014
lhumerus -24.895 -9.01179 91.4066
lradius 108.046
lwrist 17.7887
lhand -24.0685 0.791644
lfingers 7.12502
lthumb 2.41117 30.7578
rfemur -27.8521 -42.2147 28.3632
rtibia 61.4517
rfoot -36.7653 -30.8469
rtoes -8.59921
lfemur -45.5223 -6.72469 -23.9185
ltibia 49.6851
lfoot -3.80881 -12.3208
ltoes 1.596
1392
root 9.00006 16.2963 -1.06642 5.91378 24.7728 2.15674
lowerback 42.0086 0.83114 4.40137
upperback 14.4165 2.95531 -3.58049
thorax -3.55945 2.02868 -7.19239
lowerneck -9.02358 -12.4628 -9.66775
upperneck -14.8786 -14.9853 15.1766
head -1.01475 -7.4573 5.65472
rclavicle -7.31528e-014 1.19271e-013
rhumerus 71.4352 -25.1526 -53.4825
rradius 19.2006
rwrist 11.566
rhand -32.2542 24.5651
rfingers 7.12502
rthumb -5.49419 -5.34367
lclavicle -7.31528e-014 1.19271e-013
lhumerus -25.1552 -8.51853 91.8432
lradius 107.814
lwrist 17.5705
lhand -26.0681 0.526156
lfingers 7.12502
lthumb 0.479937 30.5054
rfemur -27.4861 -42.1922 27.8738
rtibia 61.5795
rfoot -36.4992 -30.9266
rtoes -9.60997
lfemur -45.2157 -6.87384 -24.1582
ltibia 49.7104
lfoot -3.99509 -12.2389
ltoes 0.988464
1393
root 9.0096 16.2872 -1.04776 5.85501 24.8493 2.32559
lowerback 42.2405 0.854176 4.16111
upperback 14.4597 2.89537 -3.71751
thorax -3.5923 2.00279 -7.19828
lowerneck -9.01114 -12.4199 -9.48365
upperneck -14.862 -14.9579 14.9421
head -1.05265 -7.44635 5.5631
rclavicle 2.70347e-014 -2.0276e-014
rhumerus 70.2724 -24.9268 -52.1711
rradius 19.9092
rwrist 10.0309
rhand -32.2772 24.8182
rfingers 7.12502
rthumb -5.51636 -5.09005
lclavicle 2.70347e-014 -2.0276e-014
lhumerus -25.2595 -8.24633 91.8708
lradius 107.62
lwrist 17.4495
lhand -25.4067 1.16195
lfingers 7.12502
lthumb 1.11875 31.1388
rfemur -27.1152 -42.127 27.4396
rtibia 61.6567
rfoot -36.8291 -30.7391
rtoes -9.07732
lfemur -44.9784 -7.05024 -24.3732
ltibia 49.7918
lfoot -4.23606 -12.0749
ltoes -0.0749503
1394
root 9.02153 16.2511 -1.03105 5.53136 25.0186 1.89508
lowerback 42.4256 0.739356 4.50192
upperback 14.569 2.8986 -3.77487
thorax -3.50543 2.03108 -7.4386
lowerneck -9.25526 -12.4513 -10.214
upperneck -14.566 -14.9002 15.7284
head -0.798857 -7.3874 5.87029
rclavicle 6.36111e-015 -1.74931e-014
rhumerus 68.7341 -24.7693 -50.5884
rradius 20.9887
rwrist 8.20781
rhand -32.1097 24.9798
rfingers 7.12502
rthumb -5.35464 -4.93251
lclavicle 6.36111e-015 -1.74931e-014
lhumerus -25.1157 -8.27733 91.6684
lradius 107.533
lwrist 17.7394
lhand -23.9861 1.81799
lfingers 7.12502
lthumb 2.49081 31.7832
rfemur -26.7494 -42.1423 27.6457
rtibia 61.7168
rfoot -37.2718 -30.5307
rtoes -8.09844
lfemur -44.8246 -7.24782 -23.9669
ltibia 49.9958
lfoot -4.3539 -11.9153
ltoes -0.802812
1395
root 9.03163 16.2366 -1.01682 5.19352 25.1852 1.35209
lowerback 42.4541 0.610763 4.82387
upperback 14.7645 2.88329 -3.72786
thorax -3.28418 2.05161 -7.54174
lowerneck -9.84426 -12.5057 -10.4178
upperneck -14.2695 -14.9177 15.9187
head -0.585883 -7.36311 5.90455
rclavicle -6.71892e-014 1.78906e-014
rhumerus 67.4761 -24.5089 -49.1593
rradius 22.146
rwrist 6.49527
rhand -32.0251 24.809
rfingers 7.12502
rthumb -5.27292 -5.10541
lclavicle -6.71892e-014 1.78906e-014
lhumerus -24.8458 -8.32249 91.6095
lradius 107.485
lwrist 18.1844
lhand -24.7659 1.56938
lfingers 7.12502
lthumb 1.73768 31.5421
rfemur -26.489 -42.2054 28.0399
rtibia 61.6935
rfoot -37.63 -30.2682
rtoes -7.13672
lfemur -44.7312 -7.50456 -23.405
ltibia 50.2214
lfoot -4.56024 -11.7229
ltoes -1.47088
1396
root 9.04439 16.2417 -1.00359 5.25387 25.147 1.33355
lowerback 42.4032 0.657459 4.54227
upperback 14.789 2.82972 -3.71249
thorax -3.26344 2.01348 -7.35725
lowerneck -10.0123 -12.4003 -9.83295
upperneck -14.3224 -14.8437 15.1824
head -0.704723 -7.3319 5.60695
rclavicle 1.63003e-014 -4.41302e-014
rhumerus 66.424 -23.921 -48.0477
rradius 23.2174
rwrist 4.89662
rhand -32.2572 24.6691
rfingers 7.12502
rthumb -5.49705 -5.23963
lclavicle 1.63003e-014 -4.41302e-014
lhumerus -24.8596 -7.91255 91.7081
lradius 107.431
lwrist 18.1253
lhand -25.3743 1.18334
lfingers 7.12502
lthumb 1.15004 31.16
rfemur -26.5205 -42.1558 28.0544
rtibia 61.6482
rfoot -37.7621 -30.212
rtoes -7.17214
lfemur -44.7947 -7.6892 -23.3583
ltibia 50.4289
lfoot -4.77689 -11.4475
ltoes -0.66141
1397
root 9.05895 16.2506 -0.993563 5.36528 24.9767 1.37106
lowerback 42.3706 0.748153 4.05335
upperback 14.6611 2.743 -3.65178
thorax -3.43087 1.93269 -7.01019
lowerneck -9.59479 -12.1212 -9.59318
upperneck -14.5389 -14.5393 14.5793
head -0.943174 -7.19389 5.45793
rclavicle -1.59028e-014 -2.92213e-014
rhumerus 65.257 -22.9092 -46.9398
rradius 24.5416
rwrist 3.36543
rhand -32.5492 24.6364
rfingers 7.12502
rthumb -5.77897 -5.26478
lclavicle -1.59028e-014 -2.92213e-014
lhumerus -25.2345 -7.18373 91.8491
lradius 107.411
lwrist 17.8551
lhand -25.249 0.973265
lfingers 7.12502
lthumb 1.27112 30.9492
rfemur -26.5553 -41.9888 28.0293
rtibia 61.5304
rfoot -37.1162 -30.7175
rtoes -8.61778
lfemur -44.8966 -7.68086 -23.3866
ltibia 50.5552
lfoot -4.8012 -11.3024
ltoes 1.47485
1398
root 9.07362 16.2583 -0.99254 5.18115 24.8188 1.12041
lowerback 42.5312 0.715718 3.85443
upperback 14.5332 2.63115 -3.52027
thorax -3.64294 1.84767 -6.73181
lowerneck -9.26133 -11.9085 -10.0101
upperneck -14.5103 -14.2618 14.4143
head -1.00172 -7.04047 5.51069
rclavicle -3.33958e-014 5.96354e-015
rhumerus 64.2604 -21.8151 -46.0109
rradius 25.8683
rwrist 2.14343
rhand -32.8842 24.7843
rfingers 7.12502
rthumb -6.10239 -5.10776
lclavicle -3.33958e-014 5.96354e-015
lhumerus -25.5969 -6.70391 92.0296
lradius 107.33
lwrist 18.0079
lhand -25.2532 0.152008
lfingers 7.12502
lthumb 1.26699 30.128
rfemur -26.349 -41.8525 28.1358
rtibia 61.3759
rfoot -36.5799 -31.0024
rtoes -9.46002
lfemur -44.8417 -7.69519 -23.1343
ltibia 50.6285
lfoot -4.83626 -11.1068
ltoes 2.54722
1399
root 9.08726 16.2611 -0.988407 5.04017 24.6586 0.863909
lowerback 42.6652 0.729698 4.01315
upperback 14.461 2.70241 -3.55592
thorax -3.7441 1.88197 -6.88451
lowerneck -9.17235 -11.9515 -10.3512
upperneck -14.4356 -14.2964 14.6272
head -0.944245 -7.04869 5.62108
rclavicle 3.93594e-014 2.78299e-014
rhumerus 63.0202 -21.3682 -45.3896
rradius 27.0662
rwrist 1.2553
rhand -33.2351 25.0403
rfingers 7.12502
rthumb -6.4412 -4.84172
lclavicle 3.93594e-014 2.78299e-014
lhumerus -25.6497 -6.95695 92.0395
lradius 107.016
lwrist 17.8508
lhand -24.6539 -0.200642
lfingers 7.12502
lthumb 1.84584 29.7711
rfemur -26.1727 -41.7312 28.264
rtibia 61.2028
rfoot -37.1242 -30.4698
rtoes -7.70845
lfemur -44.7528 -7.7645 -22.8638
ltibia 50.6773
lfoot -5.07095 -10.7845
ltoes 0.838243
1400
root 9.10116 16.2678 -0.975313 5.12909 24.4771 0.870569
lowerback 42.5049 0.8559 3.97359
upperback 14.5268 2.82557 -3.63519
thorax -3.61036 1.94956 -6.98917
lowerneck -9.44537 -12.0119 -10.6062
upperneck -14.2744 -14.3315 14.8288
head -0.813638 -7.04661 5.69099
rclavicle -1.09332e-013 7.41467e-014
rhumerus 61.7632 -21.1683 -44.915
rradius 28.4348
rwrist 0.51447
rhand -33.5345 25.2206
rfingers 7.12502
rthumb -6.73025 -4.65242
lclavicle -1.09332e-013 7.41467e-014
lhumerus -25.4062 -7.18503 92.0717
lradius 106.642
lwrist 17.2379
lhand -23.6098 0.089258
lfingers 7.12502
lthumb 2.85423 30.0499
rfemur -26.109 -41.6552 28.216
rtibia 61.0002
rfoot -37.507 -30.1965
rtoes -6.11012
lfemur -44.7356 -7.8 -22.8593
ltibia 50.7173
lfoot -5.42745 -10.5463
ltoes -1.60102
1401
root 9.12172 16.2847 -0.966764 5.23059 24.1865 1.03414
lowerback 42.3128 0.93908 3.33455
upperback 14.6062 2.68587 -3.44546
thorax -3.51603 1.84828 -6.3942
lowerneck -9.75737 -11.8683 -11.5644
upperneck -14.0792 -14.0394 14.8597
head -0.674667 -6.83954 5.83966
rclavicle -2.06736e-014 5.36719e-015
rhumerus 61.305 -20.1704 -44.6026
rradius 30.0235
rwrist -0.161043
rhand -33.5717 25.3377
rfingers 7.12502
rthumb -6.76616 -4.53421
lclavicle -2.06736e-014 5.36719e-015
lhumerus -25.3169 -6.28423 92.6003
lradius 106.562
lwrist 16.7759
lhand -22.8591 0.282178
lfingers 7.12502
lthumb 3.57921 30.2319
rfemur -25.9912 -41.6991 27.9491
rtibia 60.8182
rfoot -37.5061 -30.1484
rtoes -6.0409
lfemur -44.6693 -7.84395 -23.0139
ltibia 50.706
lfoot -5.65736 -10.2594
ltoes -1.53962
